<?xml version="1.0" encoding="UTF-8"?><!DOCTYPE svg PUBLIC "-//W3C//DTD SVG 1.1//EN" "http://www.w3.org/Graphics/SVG/1.1/DTD/svg11.dtd"><svg xmlns="http://www.w3.org/2000/svg" xmlns:xlink="http://www.w3.org/1999/xlink"><defs>
    <style>
      .cls-1 {
        fill: #000;
        fill-rule: evenodd;
      }
    </style>
  
    <style>
      .cls-1 {
        fill: #000;
        fill-rule: evenodd;
      }
    </style>
  
    <style>
      .cls-1 {
        fill: #000;
        fill-rule: evenodd;
      }
    </style>
  
    <style>
      .cls-1 {
        fill: #000;
        fill-rule: evenodd;
      }
    </style>
  </defs><symbol id="chat-icon" viewBox="0 0 16 12" preserveAspectRatio="xMidYMid">
  
  <path d="M14.849,10.155 L15.220,11.996 L13.385,11.076 C12.665,11.376 11.838,11.547 10.959,11.547 C9.589,11.547 8.347,11.132 7.438,10.460 C7.880,10.442 8.311,10.392 8.726,10.311 C9.392,10.604 10.157,10.761 10.959,10.761 C12.148,10.761 13.258,10.417 14.083,9.791 C14.835,9.222 15.249,8.490 15.249,7.727 C15.249,6.965 14.835,6.232 14.083,5.661 C13.948,5.560 13.804,5.466 13.655,5.379 C13.646,5.053 13.595,4.738 13.508,4.431 C14.999,5.094 16.000,6.322 16.000,7.727 C16.000,8.649 15.568,9.496 14.849,10.155 ZM8.203,9.798 C7.789,9.877 7.358,9.928 6.916,9.947 C6.800,9.950 6.684,9.953 6.567,9.953 C5.422,9.953 4.345,9.731 3.407,9.340 L1.017,10.537 L1.500,8.142 C0.563,7.281 -0.000,6.179 -0.000,4.976 C-0.000,2.228 2.940,0.001 6.567,0.001 C9.715,0.001 12.344,1.677 12.986,3.917 C13.073,4.223 13.124,4.540 13.133,4.864 C13.134,4.902 13.134,4.939 13.134,4.976 C13.134,7.298 11.038,9.246 8.203,9.798 ZM3.470,3.919 C2.942,3.919 2.514,4.338 2.514,4.857 C2.514,5.375 2.942,5.796 3.470,5.796 C3.998,5.796 4.425,5.375 4.425,4.857 C4.425,4.338 3.997,3.919 3.470,3.919 ZM6.567,3.919 C6.039,3.919 5.612,4.338 5.612,4.857 C5.612,5.375 6.039,5.796 6.567,5.796 C7.095,5.796 7.523,5.375 7.523,4.857 C7.523,4.338 7.095,3.919 6.567,3.919 ZM9.665,3.919 C9.137,3.919 8.709,4.338 8.709,4.857 C8.709,5.375 9.137,5.796 9.665,5.796 C10.193,5.796 10.621,5.375 10.621,4.857 C10.621,4.338 10.193,3.919 9.665,3.919 Z" class="cls-1"/>
</symbol><symbol id="email-icon" viewBox="0 0 26 13" preserveAspectRatio="xMidYMid">
  
  <path d="M18.865,9.167 L18.865,6.147 L11.087,6.147 L11.087,0.698 L18.539,5.284 L25.992,0.698 L25.992,9.167 L18.865,9.167 ZM11.087,-0.008 L25.992,-0.008 L18.539,4.579 L11.087,-0.008 ZM0.006,2.421 L9.897,2.421 L9.897,2.822 L0.006,2.822 L0.006,2.421 ZM0.852,5.928 L7.360,5.928 L7.360,6.328 L0.852,6.328 L0.852,5.928 ZM6.604,9.834 L0.006,9.834 L0.006,9.433 L6.604,9.433 L6.604,9.834 ZM13.113,9.967 L8.206,6.948 L18.020,6.948 L13.113,9.967 ZM18.020,7.413 L18.020,12.987 L8.206,12.987 L8.206,7.413 L13.113,10.431 L18.020,7.413 Z" class="cls-1"/>
</symbol><symbol id="facebook" viewBox="0 0 500 500"><path d="M398.006 28h-296.01C61.144 28 28 61.136 28 102.009v295.983C28 438.857 61.116 472 101.996 472H250V277.75h-55.5v-55.5H250v-41.625c0-38.292 31.084-69.375 69.376-69.375h69.374v55.5h-69.374c-7.655 0-13.874 6.219-13.874 13.875v41.625h76.311l-13.874 55.5h-62.437V472h92.504C438.858 472 472 438.857 472 397.992V102.009C472 61.136 438.884 28 398.006 28z"/></symbol><symbol id="instagram" viewBox="0 0 500 500"><path d="M420.78 215.825h-38.653c2.816 10.932 4.479 22.358 4.479 34.165 0 75.458-61.158 136.617-136.604 136.617S113.395 325.448 113.395 249.99c0-11.807 1.67-23.233 4.486-34.165h-38.65v187.86c0 9.415 7.645 17.061 17.087 17.061h307.363c9.454 0 17.103-7.638 17.103-17.061v-187.86h-.004zm0-119.531c0-9.423-7.648-17.07-17.095-17.07h-51.218c-9.435 0-17.079 7.647-17.079 17.075v51.243c0 9.425 7.641 17.075 17.079 17.075h51.218c9.446 0 17.095-7.65 17.095-17.075v-51.25.002zm-170.782 68.32c-47.161 0-85.387 38.222-85.387 85.38 0 47.148 38.226 85.392 85.387 85.392 47.157 0 85.391-38.243 85.391-85.39 0-47.16-38.234-85.382-85.391-85.382M420.78 472H79.224C50.943 472 28 449.055 28 420.746V79.22C28 50.931 50.938 28 79.224 28H420.78C449.07 28 472 50.931 472 79.22v341.526C472 449.055 449.07 472 420.78 472"/></symbol><symbol id="search-icon" viewBox="0 0 14 14" preserveAspectRatio="xMidYMid">
  
  <path d="M13.878,13.284 L10.476,9.881 C11.388,8.834 11.941,7.463 11.941,5.968 C11.941,2.674 9.261,-0.002 5.970,-0.002 C2.676,-0.002 -0.000,2.676 -0.000,5.968 C-0.000,9.259 2.679,11.936 5.970,11.936 C7.467,11.936 8.836,11.383 9.886,10.473 L13.288,13.874 C13.369,13.955 13.478,13.998 13.583,13.998 C13.689,13.998 13.798,13.958 13.878,13.874 C14.040,13.713 14.040,13.445 13.878,13.284 ZM0.835,5.968 C0.835,3.137 3.139,0.836 5.967,0.836 C8.799,0.836 11.100,3.139 11.100,5.968 C11.100,8.795 8.799,11.102 5.967,11.102 C3.139,11.102 0.835,8.799 0.835,5.968 Z" class="cls-1"/>
</symbol><symbol id="telephone-icon" viewBox="0 0 14 14" preserveAspectRatio="xMidYMid">
  
  <path d="M13.993,11.047 C14.022,11.275 13.953,11.473 13.785,11.640 L11.814,13.598 C11.725,13.697 11.609,13.780 11.466,13.850 C11.322,13.919 11.181,13.964 11.043,13.983 C11.033,13.983 11.004,13.985 10.954,13.991 C10.905,13.995 10.841,13.998 10.762,13.998 C10.574,13.998 10.270,13.966 9.850,13.902 C9.430,13.837 8.916,13.680 8.309,13.427 C7.701,13.175 7.012,12.797 6.241,12.293 C5.471,11.789 4.650,11.096 3.781,10.216 C3.089,9.534 2.516,8.882 2.062,8.258 C1.607,7.636 1.242,7.060 0.965,6.531 C0.688,6.002 0.481,5.522 0.343,5.093 C0.204,4.663 0.110,4.292 0.061,3.980 C0.012,3.668 -0.008,3.424 0.002,3.246 C0.012,3.068 0.017,2.969 0.017,2.950 C0.036,2.811 0.081,2.670 0.150,2.527 C0.219,2.383 0.303,2.267 0.402,2.177 L2.373,0.206 C2.511,0.067 2.669,-0.002 2.847,-0.002 C2.976,-0.002 3.089,0.035 3.188,0.110 C3.287,0.183 3.371,0.275 3.440,0.383 L5.026,3.395 C5.115,3.552 5.140,3.725 5.100,3.913 C5.061,4.101 4.977,4.259 4.848,4.389 L4.122,5.114 C4.102,5.135 4.085,5.166 4.070,5.211 C4.055,5.255 4.048,5.293 4.048,5.322 C4.087,5.529 4.176,5.767 4.315,6.034 C4.433,6.272 4.616,6.561 4.863,6.902 C5.110,7.243 5.461,7.636 5.915,8.082 C6.360,8.535 6.755,8.889 7.101,9.141 C7.447,9.394 7.736,9.578 7.968,9.697 C8.200,9.816 8.378,9.888 8.501,9.913 L8.687,9.950 C8.706,9.950 8.739,9.942 8.783,9.928 C8.827,9.913 8.860,9.895 8.879,9.875 L9.724,9.015 C9.902,8.857 10.110,8.778 10.347,8.778 C10.515,8.778 10.648,8.808 10.747,8.867 L10.762,8.867 L13.622,10.558 C13.830,10.687 13.953,10.849 13.993,11.047 Z" class="cls-1"/>
</symbol><symbol id="twitter" viewBox="0 0 500 500"><path d="M485 104.217c-17.289 7.664-35.885 12.852-55.371 15.181 19.891-11.94 35.176-30.842 42.395-53.339-18.666 11.044-39.292 19.09-61.269 23.395-17.552-18.728-42.615-30.418-70.322-30.418-53.282 0-96.441 43.179-96.441 96.421 0 7.566.855 14.924 2.505 21.976-80.137-4.042-151.203-42.45-198.756-100.755-8.304 14.242-13.074 30.779-13.074 48.464 0 33.457 17.039 62.964 42.922 80.267-15.808-.494-30.676-4.847-43.687-12.046v1.211c0 46.705 33.221 85.691 77.325 94.536a96.558 96.558 0 0 1-25.403 3.381 94.9 94.9 0 0 1-18.123-1.726c12.26 38.291 47.88 66.179 90.079 66.971-33.02 25.855-74.613 41.269-119.782 41.269A196.1 196.1 0 0 1 15 397.654c42.65 27.344 93.34 43.311 147.799 43.311 177.355 0 274.369-146.93 274.369-274.353 0-4.193-.097-8.353-.307-12.491 18.847-13.575 35.219-30.55 48.139-49.89v-.014z"/></symbol><symbol id="viget" viewBox="0 0 500 181.079" preserveAspectRatio="true">
  <path d="M77.144 90.693c0 21.3-17.264 38.58-38.563 38.58-21.314 0-38.58-17.28-38.58-38.58 0-21.32 17.266-38.59 38.58-38.59 21.3 0 38.564 17.272 38.564 38.59"/>
  <path fill="currentColor" d="M114.678 48.59c0 11.165-9.037 20.196-20.187 20.196-11.14 0-20.18-9.032-20.18-20.196 0-11.15 9.04-20.2 20.18-20.2 11.15 0 20.188 9.05 20.188 20.2"/>
  <path fill="#092f40" d="M246.277 52.125h-6.374c-1.774 0-3.372 1.595-3.372 3.376v70.322c0 1.774 1.6 3.372 3.373 3.372h6.374c1.776 0 3.376-1.598 3.376-3.372v-70.32c0-1.78-1.6-3.377-3.376-3.377zm133.89-.027c-22.028.242-36.653 17.99-36.653 38.656 0 21.167 17.158 38.662 39.438 38.662 12.705 0 22.486-5.974 26.23-10.188 1.75-1.97 1.186-3.162-.363-4.58-1.354-1.254-2.84-2.734-4.185-3.982-1.24-1.145-2.19-1.094-3.824.128-4.725 3.513-10.628 6.03-18.36 6.03-14.712 0-25.344-10.604-26.08-22.942h53.894c1.65 0 3.13-1.294 3.31-3.128.19-1.29.373-3.682.373-4.976 0-19.167-14.683-33.44-33.78-33.68zM356.66 83.573c.732-10.458 9.916-20.25 22.242-20.25 11.237 0 21.79 9.57 22.333 20.25H356.66zm23.02-31.486c.164 0 .325.01.488.01.15 0 .3-.01.452-.01h-.94zm90.487 68.17l-5.318-5.273c-.408-.415-1.733-.892-3.09.277 0 0-2.717 2.502-7.33 2.502-3.182 0-5.77-1.157-7.664-3.113-1.877-1.965-3.07-4.792-3.126-8.317-.002-.193-.038-.376-.094-.554V62.723h19.466c1.957 0 3.372-1.595 3.372-3.376v-3.9c0-1.958-1.415-3.375-3.372-3.375h-19.466V32.467c0-1.776-1.417-3.374-3.197-3.374l-5.674.61c-1.773.236-3.376 1.6-3.376 3.374v18.996h-9.234c-1.952 0-3.37 1.417-3.37 3.376v3.898c0 1.78 1.418 3.376 3.37 3.376h9.234v44.21h.08c.146 5.426 2.178 9.578 3.41 11.628 1.112 1.756 3.522 5.18 7.38 7.916v.005c.056.04.128.086.198.13 1.795 1.053 5.773 2.82 11.94 2.814h.043c6.41 0 11.86-2.356 15.78-6.118.412-.394.65-.948.66-1.52.008-.572-.224-1.13-.623-1.534zM220.422 52.18h-6.92l-.814.016c-1.547 0-2.58.918-3.09 1.954l-24.197 57.396-23.776-57.53c-.513-1.036-1.544-1.954-3.09-1.954l-.816-.015h-7.11c-2.666 0-3.73 1.778-2.666 4.084l1.267 2.902 28.99 66.736c.642 1.55 1.902 3.37 3.67 3.37h7.064c1.77 0 3.03-1.82 3.677-3.37l29.21-66.6 1.266-2.902c1.066-2.307 0-4.085-2.664-4.085zm90.392 77.248h-25.816c-6.63 0-9.856-4.634-9.856-9.116 0-7.174 7.887-10.76 7.887-10.76s8.438 5.21 18.29 5.21c18.957 0 31.82-14.885 31.82-31.202 0-12.198-7.376-19.292-7.376-19.292l9.754-2.77c1.244-.18 1.97-1.792 1.97-3.05V55.41c0-1.965-1.433-3.404-3.406-3.404h-34.026c-18.642 0-30.298 14.883-30.298 31.553 0 10.578 5.74 17.93 5.74 17.93s-12.01 6.98-12.01 20.608c0 11.118 8.424 15.78 13.087 17.034v.538c-1.8 1.07-10.396 5.916-10.396 16.67 0 11.834 10.395 24.736 34.415 24.736 21.69 0 37.105-14.16 37.105-29.038.003-15.59-11.827-22.61-26.886-22.61zM301.32 63.6c10.776 0 19.507 8.744 19.507 19.52 0 10.784-8.73 19.51-19.507 19.51-10.76 0-19.49-8.727-19.49-19.51 0-10.777 8.73-19.52 19.49-19.52zm-.9 105.832c-12.197 0-21.516-6.275-21.516-14.877 0-10.586 12.015-13.813 12.015-13.813h19.894c12.543 0 13.622 9.323 13.622 11.656 0 10.398-12.19 17.034-24.017 17.034zm-57.39-145.88c-4.124 0-7.473 3.346-7.473 7.638 0 4.133 3.348 7.482 7.474 7.482 4.305 0 7.645-3.35 7.645-7.482 0-4.293-3.34-7.637-7.644-7.637z"/>
</symbol></svg>